<?xml version="1.0" encoding="UTF-8"?>
<svg viewBox="0 0 150 150" xmlns="http://www.w3.org/2000/svg" xmlns:xlink="http://www.w3.org/1999/xlink">
 <defs>
  <linearGradient id="a">
   <stop stop-color="#fff" stop-opacity=".5" offset="0"/>
   <stop stop-color="#fff" stop-opacity="0" offset="1"/>
  </linearGradient>
  <linearGradient id="b" x1=".13281" x2=".9375" y1=".11719" y2=".94531" xlink:href="#a"/>
  <linearGradient id="e" x1=".28986" x2=".62319" y1="-.05" y2=".68" xlink:href="#a"/>
  <linearGradient id="d" x1=".19173" x2=".54887" y1=".15625" y2=".5625" xlink:href="#a"/>
  <radialGradient id="c" cx=".43844" cy=".24229" r=".3987" fx=".44613" fy=".2501">
   <stop stop-color="#fff" offset="0"/>
   <stop stop-color="#ffc613" offset="1"/>
  </radialGradient>
 </defs>
 <path transform="matrix(1.02 0 0 1.0522 -6.6976 -9.9339)" d="m130.96 72.296c0 25.883-21.682 46.89-48.397 46.89s-48.397-21.007-48.397-46.89 21.682-46.89 48.397-46.89 48.397 21.007 48.397 46.89z" fill="url(#c)" fill-rule="evenodd" stroke="#000" stroke-linejoin="round" stroke-width="2.4133"/>
 <g transform="translate(-74.489 36.103)" fill-rule="evenodd">
  <path transform="matrix(.9988 0 0 1.0704 .14204 -2.3295)" d="m143.01 21.387c0 6.1011-5.3267 11.053-11.89 11.053s-11.89-4.9516-11.89-11.053 5.3267-11.053 11.89-11.053 11.89 4.9516 11.89 11.053z" fill="#fff" stroke="#000" stroke-linejoin="round" stroke-width="2.4178"/>
  <path transform="matrix(.66645 0 0 .73179 43.863 2.2564)" d="m140.34 24.904c0 4.7145-4.2014 8.5407-9.378 8.5407s-9.378-3.8262-9.378-8.5407 4.2014-8.5407 9.378-8.5407 9.378 3.8262 9.378 8.5407z" fill="#00f"/>
  <path d="m134.89 20.538c0 2.07-1.68 3.75-3.75 3.75s-3.75-1.68-3.75-3.75 1.68-3.75 3.75-3.75 3.75 1.68 3.75 3.75z"/>
  <path d="m135.38 19.288c0 2.76-2.24 5-5 5s-5-2.24-5-5 2.24-5 5-5 5 2.24 5 5z" fill="url(#b)"/>
 </g>
 <g transform="translate(-34.45 34.916)" fill-rule="evenodd">
  <path transform="matrix(.9988 0 0 1.0704 .14204 -2.3295)" d="m143.01 21.387c0 6.1011-5.3267 11.053-11.89 11.053s-11.89-4.9516-11.89-11.053 5.3267-11.053 11.89-11.053 11.89 4.9516 11.89 11.053z" fill="#fff" stroke="#000" stroke-linejoin="round" stroke-width="2.4178"/>
  <path transform="matrix(.66645 0 0 .73179 43.863 2.2564)" d="m140.34 24.904c0 4.7145-4.2014 8.5407-9.378 8.5407s-9.378-3.8262-9.378-8.5407 4.2014-8.5407 9.378-8.5407 9.378 3.8262 9.378 8.5407z" fill="#00f"/>
  <path d="m134.89 20.538c0 2.07-1.68 3.75-3.75 3.75s-3.75-1.68-3.75-3.75 1.68-3.75 3.75-3.75 3.75 1.68 3.75 3.75z"/>
  <path d="m135.38 19.288c0 2.76-2.24 5-5 5s-5-2.24-5-5 2.24-5 5-5 5 2.24 5 5z" fill="url(#b)"/>
 </g>
 <path d="m49.939 87.244c8.3969 12.374 49.497 11.932 57.452-3.5355" fill="none" stroke="#000" stroke-linejoin="round" stroke-width="2.5"/>
 <path d="m31.457 39.191c8.2052 6.8547 29.968 10.871 46.508 10.969 12.438-0.70087 34.472-8.0497 43.934-13.062 3.496 5.307 5.6761 10.647 6.2365 15.076-1.7225 5.812-9.0561 11.087-13.969 14.216-6.2183 3.3832-16.723 4.1898-23.5 1.9637-4.4964-2.3776-9.1278-8.2904-12.25-7.5981-3.519-0.26024-6.8036 8.2743-12.226 10.264-5.9445 3.175-17.963 3.3536-21.885 0.89646-3.7125-2.1364-18.655-14.4-17.722-21.395 0.23786-1.77 3.3444-10.352 4.8738-11.33z" fill-opacity=".95" fill-rule="evenodd"/>
 <path d="m65.357 50.418c-7.2915-0.05685-30.291-6.7218-34.063-9.8054-1.418 2.5865-4.0437 6.9065-3.2729 9.9184 3.0593 9.9635 7.776-2.8026 37.336-0.11296z" fill="url(#e)" fill-rule="evenodd"/>
 <path d="m83.5 51.037s25.86-7.0543 37.818-12.415c-24.947 10.515-30.19 27.053-37.818 12.415z" fill="url(#d)" fill-rule="evenodd"/>
</svg>
